<mxfile host="Electron" agent="Mozilla/5.0 (Macintosh; Intel Mac OS X 10_15_7) AppleWebKit/537.36 (KHTML, like Gecko) draw.io/26.1.1 Chrome/132.0.6834.210 Electron/34.3.3 Safari/537.36" version="26.1.1">
  <diagram id="C5RBs43oDa-KdzZeNtuy" name="Page-1">
    <mxGraphModel dx="2208" dy="2068" grid="1" gridSize="10" guides="1" tooltips="1" connect="1" arrows="1" fold="1" page="1" pageScale="1" pageWidth="827" pageHeight="1169" math="0" shadow="0">
      <root>
        <mxCell id="WIyWlLk6GJQsqaUBKTNV-0" />
        <mxCell id="WIyWlLk6GJQsqaUBKTNV-1" parent="WIyWlLk6GJQsqaUBKTNV-0" />
        <mxCell id="fwTSQnMMm6DItT3Sku7C-105" style="edgeStyle=orthogonalEdgeStyle;rounded=0;orthogonalLoop=1;jettySize=auto;html=1;endArrow=diamondThin;endFill=1;endSize=12;exitX=0.5;exitY=0;exitDx=0;exitDy=0;" edge="1" parent="WIyWlLk6GJQsqaUBKTNV-1" source="fwTSQnMMm6DItT3Sku7C-89" target="fwTSQnMMm6DItT3Sku7C-5">
          <mxGeometry relative="1" as="geometry" />
        </mxCell>
        <mxCell id="fwTSQnMMm6DItT3Sku7C-5" value="Proposta" style="swimlane;fontStyle=0;childLayout=stackLayout;horizontal=1;startSize=26;horizontalStack=0;resizeParent=1;resizeParentMax=0;resizeLast=0;collapsible=1;marginBottom=0;whiteSpace=wrap;html=1;" vertex="1" parent="WIyWlLk6GJQsqaUBKTNV-1">
          <mxGeometry x="120" y="270" width="140" height="178" as="geometry" />
        </mxCell>
        <mxCell id="fwTSQnMMm6DItT3Sku7C-6" value="+ id" style="text;align=left;verticalAlign=top;spacingLeft=4;spacingRight=4;overflow=hidden;rotatable=0;points=[[0,0.5],[1,0.5]];portConstraint=eastwest;whiteSpace=wrap;html=1;" vertex="1" parent="fwTSQnMMm6DItT3Sku7C-5">
          <mxGeometry y="26" width="140" height="22" as="geometry" />
        </mxCell>
        <mxCell id="fwTSQnMMm6DItT3Sku7C-7" value="+ proponente" style="text;align=left;verticalAlign=top;spacingLeft=4;spacingRight=4;overflow=hidden;rotatable=0;points=[[0,0.5],[1,0.5]];portConstraint=eastwest;whiteSpace=wrap;html=1;" vertex="1" parent="fwTSQnMMm6DItT3Sku7C-5">
          <mxGeometry y="48" width="140" height="26" as="geometry" />
        </mxCell>
        <mxCell id="fwTSQnMMm6DItT3Sku7C-8" value="+ agente" style="text;align=left;verticalAlign=top;spacingLeft=4;spacingRight=4;overflow=hidden;rotatable=0;points=[[0,0.5],[1,0.5]];portConstraint=eastwest;whiteSpace=wrap;html=1;" vertex="1" parent="fwTSQnMMm6DItT3Sku7C-5">
          <mxGeometry y="74" width="140" height="26" as="geometry" />
        </mxCell>
        <mxCell id="fwTSQnMMm6DItT3Sku7C-14" value="+ valor" style="text;align=left;verticalAlign=top;spacingLeft=4;spacingRight=4;overflow=hidden;rotatable=0;points=[[0,0.5],[1,0.5]];portConstraint=eastwest;whiteSpace=wrap;html=1;" vertex="1" parent="fwTSQnMMm6DItT3Sku7C-5">
          <mxGeometry y="100" width="140" height="26" as="geometry" />
        </mxCell>
        <mxCell id="fwTSQnMMm6DItT3Sku7C-15" value="+ numeroParcelas" style="text;align=left;verticalAlign=top;spacingLeft=4;spacingRight=4;overflow=hidden;rotatable=0;points=[[0,0.5],[1,0.5]];portConstraint=eastwest;whiteSpace=wrap;html=1;" vertex="1" parent="fwTSQnMMm6DItT3Sku7C-5">
          <mxGeometry y="126" width="140" height="26" as="geometry" />
        </mxCell>
        <mxCell id="fwTSQnMMm6DItT3Sku7C-16" value="+ status" style="text;align=left;verticalAlign=top;spacingLeft=4;spacingRight=4;overflow=hidden;rotatable=0;points=[[0,0.5],[1,0.5]];portConstraint=eastwest;whiteSpace=wrap;html=1;" vertex="1" parent="fwTSQnMMm6DItT3Sku7C-5">
          <mxGeometry y="152" width="140" height="26" as="geometry" />
        </mxCell>
        <mxCell id="fwTSQnMMm6DItT3Sku7C-109" style="edgeStyle=orthogonalEdgeStyle;rounded=0;orthogonalLoop=1;jettySize=auto;html=1;endArrow=diamondThin;endFill=1;endSize=12;exitX=0.5;exitY=1;exitDx=0;exitDy=0;startArrow=classicThin;startFill=1;" edge="1" parent="WIyWlLk6GJQsqaUBKTNV-1" source="fwTSQnMMm6DItT3Sku7C-98" target="fwTSQnMMm6DItT3Sku7C-27">
          <mxGeometry relative="1" as="geometry">
            <Array as="points">
              <mxPoint x="460" y="530" />
              <mxPoint x="460" y="530" />
            </Array>
          </mxGeometry>
        </mxCell>
        <mxCell id="fwTSQnMMm6DItT3Sku7C-155" style="rounded=0;orthogonalLoop=1;jettySize=auto;html=1;entryX=0.5;entryY=1;entryDx=0;entryDy=0;endArrow=block;endFill=0;exitX=0.5;exitY=0;exitDx=0;exitDy=0;edgeStyle=orthogonalEdgeStyle;" edge="1" parent="WIyWlLk6GJQsqaUBKTNV-1" source="fwTSQnMMm6DItT3Sku7C-27" target="fwTSQnMMm6DItT3Sku7C-149">
          <mxGeometry relative="1" as="geometry" />
        </mxCell>
        <mxCell id="fwTSQnMMm6DItT3Sku7C-27" value="Simulacao" style="swimlane;fontStyle=0;childLayout=stackLayout;horizontal=1;startSize=26;horizontalStack=0;resizeParent=1;resizeParentMax=0;resizeLast=0;collapsible=1;marginBottom=0;whiteSpace=wrap;html=1;" vertex="1" parent="WIyWlLk6GJQsqaUBKTNV-1">
          <mxGeometry x="-120" y="800" width="140" height="104" as="geometry" />
        </mxCell>
        <mxCell id="fwTSQnMMm6DItT3Sku7C-31" value="+ valor" style="text;align=left;verticalAlign=top;spacingLeft=4;spacingRight=4;overflow=hidden;rotatable=0;points=[[0,0.5],[1,0.5]];portConstraint=eastwest;whiteSpace=wrap;html=1;" vertex="1" parent="fwTSQnMMm6DItT3Sku7C-27">
          <mxGeometry y="26" width="140" height="26" as="geometry" />
        </mxCell>
        <mxCell id="fwTSQnMMm6DItT3Sku7C-32" value="+ numeroParcelas" style="text;align=left;verticalAlign=top;spacingLeft=4;spacingRight=4;overflow=hidden;rotatable=0;points=[[0,0.5],[1,0.5]];portConstraint=eastwest;whiteSpace=wrap;html=1;" vertex="1" parent="fwTSQnMMm6DItT3Sku7C-27">
          <mxGeometry y="52" width="140" height="26" as="geometry" />
        </mxCell>
        <mxCell id="fwTSQnMMm6DItT3Sku7C-33" value="+ status" style="text;align=left;verticalAlign=top;spacingLeft=4;spacingRight=4;overflow=hidden;rotatable=0;points=[[0,0.5],[1,0.5]];portConstraint=eastwest;whiteSpace=wrap;html=1;" vertex="1" parent="fwTSQnMMm6DItT3Sku7C-27">
          <mxGeometry y="78" width="140" height="26" as="geometry" />
        </mxCell>
        <mxCell id="fwTSQnMMm6DItT3Sku7C-39" value="Agente" style="swimlane;fontStyle=0;childLayout=stackLayout;horizontal=1;startSize=26;horizontalStack=0;resizeParent=1;resizeParentMax=0;resizeLast=0;collapsible=1;marginBottom=0;whiteSpace=wrap;html=1;" vertex="1" parent="WIyWlLk6GJQsqaUBKTNV-1">
          <mxGeometry x="390" y="-40" width="140" height="100" as="geometry">
            <mxRectangle x="290" y="70" width="80" height="30" as="alternateBounds" />
          </mxGeometry>
        </mxCell>
        <mxCell id="fwTSQnMMm6DItT3Sku7C-40" value="+ id" style="text;align=left;verticalAlign=top;spacingLeft=4;spacingRight=4;overflow=hidden;rotatable=0;points=[[0,0.5],[1,0.5]];portConstraint=eastwest;whiteSpace=wrap;html=1;" vertex="1" parent="fwTSQnMMm6DItT3Sku7C-39">
          <mxGeometry y="26" width="140" height="22" as="geometry" />
        </mxCell>
        <mxCell id="fwTSQnMMm6DItT3Sku7C-41" value="+ nome" style="text;align=left;verticalAlign=top;spacingLeft=4;spacingRight=4;overflow=hidden;rotatable=0;points=[[0,0.5],[1,0.5]];portConstraint=eastwest;whiteSpace=wrap;html=1;" vertex="1" parent="fwTSQnMMm6DItT3Sku7C-39">
          <mxGeometry y="48" width="140" height="26" as="geometry" />
        </mxCell>
        <mxCell id="fwTSQnMMm6DItT3Sku7C-42" value="+ ativo" style="text;align=left;verticalAlign=top;spacingLeft=4;spacingRight=4;overflow=hidden;rotatable=0;points=[[0,0.5],[1,0.5]];portConstraint=eastwest;whiteSpace=wrap;html=1;" vertex="1" parent="fwTSQnMMm6DItT3Sku7C-39">
          <mxGeometry y="74" width="140" height="26" as="geometry" />
        </mxCell>
        <mxCell id="fwTSQnMMm6DItT3Sku7C-53" value="Proponente" style="swimlane;fontStyle=0;childLayout=stackLayout;horizontal=1;startSize=26;horizontalStack=0;resizeParent=1;resizeParentMax=0;resizeLast=0;collapsible=1;marginBottom=0;whiteSpace=wrap;html=1;" vertex="1" parent="WIyWlLk6GJQsqaUBKTNV-1">
          <mxGeometry x="390" y="90" width="140" height="256" as="geometry">
            <mxRectangle x="290" y="70" width="80" height="30" as="alternateBounds" />
          </mxGeometry>
        </mxCell>
        <mxCell id="fwTSQnMMm6DItT3Sku7C-54" value="+ id" style="text;align=left;verticalAlign=top;spacingLeft=4;spacingRight=4;overflow=hidden;rotatable=0;points=[[0,0.5],[1,0.5]];portConstraint=eastwest;whiteSpace=wrap;html=1;" vertex="1" parent="fwTSQnMMm6DItT3Sku7C-53">
          <mxGeometry y="26" width="140" height="22" as="geometry" />
        </mxCell>
        <mxCell id="fwTSQnMMm6DItT3Sku7C-55" value="+ nome" style="text;align=left;verticalAlign=top;spacingLeft=4;spacingRight=4;overflow=hidden;rotatable=0;points=[[0,0.5],[1,0.5]];portConstraint=eastwest;whiteSpace=wrap;html=1;" vertex="1" parent="fwTSQnMMm6DItT3Sku7C-53">
          <mxGeometry y="48" width="140" height="26" as="geometry" />
        </mxCell>
        <mxCell id="fwTSQnMMm6DItT3Sku7C-56" value="+ cpf" style="text;align=left;verticalAlign=top;spacingLeft=4;spacingRight=4;overflow=hidden;rotatable=0;points=[[0,0.5],[1,0.5]];portConstraint=eastwest;whiteSpace=wrap;html=1;" vertex="1" parent="fwTSQnMMm6DItT3Sku7C-53">
          <mxGeometry y="74" width="140" height="26" as="geometry" />
        </mxCell>
        <mxCell id="fwTSQnMMm6DItT3Sku7C-57" value="+ rendimentoMensal" style="text;align=left;verticalAlign=top;spacingLeft=4;spacingRight=4;overflow=hidden;rotatable=0;points=[[0,0.5],[1,0.5]];portConstraint=eastwest;whiteSpace=wrap;html=1;" vertex="1" parent="fwTSQnMMm6DItT3Sku7C-53">
          <mxGeometry y="100" width="140" height="26" as="geometry" />
        </mxCell>
        <mxCell id="fwTSQnMMm6DItT3Sku7C-58" value="+ numeroInss" style="text;align=left;verticalAlign=top;spacingLeft=4;spacingRight=4;overflow=hidden;rotatable=0;points=[[0,0.5],[1,0.5]];portConstraint=eastwest;whiteSpace=wrap;html=1;" vertex="1" parent="fwTSQnMMm6DItT3Sku7C-53">
          <mxGeometry y="126" width="140" height="26" as="geometry" />
        </mxCell>
        <mxCell id="fwTSQnMMm6DItT3Sku7C-59" value="+ dataNascimento" style="text;align=left;verticalAlign=top;spacingLeft=4;spacingRight=4;overflow=hidden;rotatable=0;points=[[0,0.5],[1,0.5]];portConstraint=eastwest;whiteSpace=wrap;html=1;" vertex="1" parent="fwTSQnMMm6DItT3Sku7C-53">
          <mxGeometry y="152" width="140" height="26" as="geometry" />
        </mxCell>
        <mxCell id="fwTSQnMMm6DItT3Sku7C-60" value="+ endereco" style="text;align=left;verticalAlign=top;spacingLeft=4;spacingRight=4;overflow=hidden;rotatable=0;points=[[0,0.5],[1,0.5]];portConstraint=eastwest;whiteSpace=wrap;html=1;" vertex="1" parent="fwTSQnMMm6DItT3Sku7C-53">
          <mxGeometry y="178" width="140" height="26" as="geometry" />
        </mxCell>
        <mxCell id="fwTSQnMMm6DItT3Sku7C-61" value="+ telefone" style="text;align=left;verticalAlign=top;spacingLeft=4;spacingRight=4;overflow=hidden;rotatable=0;points=[[0,0.5],[1,0.5]];portConstraint=eastwest;whiteSpace=wrap;html=1;" vertex="1" parent="fwTSQnMMm6DItT3Sku7C-53">
          <mxGeometry y="204" width="140" height="26" as="geometry" />
        </mxCell>
        <mxCell id="fwTSQnMMm6DItT3Sku7C-62" value="+ email" style="text;align=left;verticalAlign=top;spacingLeft=4;spacingRight=4;overflow=hidden;rotatable=0;points=[[0,0.5],[1,0.5]];portConstraint=eastwest;whiteSpace=wrap;html=1;" vertex="1" parent="fwTSQnMMm6DItT3Sku7C-53">
          <mxGeometry y="230" width="140" height="26" as="geometry" />
        </mxCell>
        <mxCell id="fwTSQnMMm6DItT3Sku7C-63" value="Email" style="swimlane;fontStyle=0;childLayout=stackLayout;horizontal=1;startSize=26;horizontalStack=0;resizeParent=1;resizeParentMax=0;resizeLast=0;collapsible=1;marginBottom=0;whiteSpace=wrap;html=1;" vertex="1" parent="WIyWlLk6GJQsqaUBKTNV-1">
          <mxGeometry x="630" y="40" width="140" height="78" as="geometry">
            <mxRectangle x="290" y="70" width="80" height="30" as="alternateBounds" />
          </mxGeometry>
        </mxCell>
        <mxCell id="fwTSQnMMm6DItT3Sku7C-65" value="+ valor" style="text;align=left;verticalAlign=top;spacingLeft=4;spacingRight=4;overflow=hidden;rotatable=0;points=[[0,0.5],[1,0.5]];portConstraint=eastwest;whiteSpace=wrap;html=1;" vertex="1" parent="fwTSQnMMm6DItT3Sku7C-63">
          <mxGeometry y="26" width="140" height="26" as="geometry" />
        </mxCell>
        <mxCell id="fwTSQnMMm6DItT3Sku7C-66" value="- validar()" style="text;align=left;verticalAlign=top;spacingLeft=4;spacingRight=4;overflow=hidden;rotatable=0;points=[[0,0.5],[1,0.5]];portConstraint=eastwest;whiteSpace=wrap;html=1;" vertex="1" parent="fwTSQnMMm6DItT3Sku7C-63">
          <mxGeometry y="52" width="140" height="26" as="geometry" />
        </mxCell>
        <mxCell id="fwTSQnMMm6DItT3Sku7C-87" style="edgeStyle=orthogonalEdgeStyle;rounded=0;orthogonalLoop=1;jettySize=auto;html=1;exitX=0;exitY=0.5;exitDx=0;exitDy=0;entryX=1;entryY=0.5;entryDx=0;entryDy=0;endArrow=none;endFill=1;startFill=1;startArrow=classicThin;" edge="1" parent="WIyWlLk6GJQsqaUBKTNV-1" source="fwTSQnMMm6DItT3Sku7C-76" target="fwTSQnMMm6DItT3Sku7C-57">
          <mxGeometry relative="1" as="geometry">
            <Array as="points">
              <mxPoint x="610" y="203" />
              <mxPoint x="610" y="203" />
            </Array>
          </mxGeometry>
        </mxCell>
        <mxCell id="fwTSQnMMm6DItT3Sku7C-76" value="Telefone" style="swimlane;fontStyle=0;childLayout=stackLayout;horizontal=1;startSize=26;horizontalStack=0;resizeParent=1;resizeParentMax=0;resizeLast=0;collapsible=1;marginBottom=0;whiteSpace=wrap;html=1;" vertex="1" parent="WIyWlLk6GJQsqaUBKTNV-1">
          <mxGeometry x="630" y="164" width="140" height="78" as="geometry">
            <mxRectangle x="290" y="70" width="80" height="30" as="alternateBounds" />
          </mxGeometry>
        </mxCell>
        <mxCell id="fwTSQnMMm6DItT3Sku7C-77" value="+ valor" style="text;align=left;verticalAlign=top;spacingLeft=4;spacingRight=4;overflow=hidden;rotatable=0;points=[[0,0.5],[1,0.5]];portConstraint=eastwest;whiteSpace=wrap;html=1;" vertex="1" parent="fwTSQnMMm6DItT3Sku7C-76">
          <mxGeometry y="26" width="140" height="26" as="geometry" />
        </mxCell>
        <mxCell id="fwTSQnMMm6DItT3Sku7C-78" value="- validar()" style="text;align=left;verticalAlign=top;spacingLeft=4;spacingRight=4;overflow=hidden;rotatable=0;points=[[0,0.5],[1,0.5]];portConstraint=eastwest;whiteSpace=wrap;html=1;" vertex="1" parent="fwTSQnMMm6DItT3Sku7C-76">
          <mxGeometry y="52" width="140" height="26" as="geometry" />
        </mxCell>
        <mxCell id="fwTSQnMMm6DItT3Sku7C-79" value="Endereco" style="swimlane;fontStyle=0;childLayout=stackLayout;horizontal=1;startSize=26;horizontalStack=0;resizeParent=1;resizeParentMax=0;resizeLast=0;collapsible=1;marginBottom=0;whiteSpace=wrap;html=1;" vertex="1" parent="WIyWlLk6GJQsqaUBKTNV-1">
          <mxGeometry x="630" y="280" width="140" height="130" as="geometry">
            <mxRectangle x="290" y="70" width="80" height="30" as="alternateBounds" />
          </mxGeometry>
        </mxCell>
        <mxCell id="fwTSQnMMm6DItT3Sku7C-80" value="+ rua" style="text;align=left;verticalAlign=top;spacingLeft=4;spacingRight=4;overflow=hidden;rotatable=0;points=[[0,0.5],[1,0.5]];portConstraint=eastwest;whiteSpace=wrap;html=1;" vertex="1" parent="fwTSQnMMm6DItT3Sku7C-79">
          <mxGeometry y="26" width="140" height="26" as="geometry" />
        </mxCell>
        <mxCell id="fwTSQnMMm6DItT3Sku7C-82" value="+ cidade" style="text;align=left;verticalAlign=top;spacingLeft=4;spacingRight=4;overflow=hidden;rotatable=0;points=[[0,0.5],[1,0.5]];portConstraint=eastwest;whiteSpace=wrap;html=1;" vertex="1" parent="fwTSQnMMm6DItT3Sku7C-79">
          <mxGeometry y="52" width="140" height="26" as="geometry" />
        </mxCell>
        <mxCell id="fwTSQnMMm6DItT3Sku7C-83" value="+ estado" style="text;align=left;verticalAlign=top;spacingLeft=4;spacingRight=4;overflow=hidden;rotatable=0;points=[[0,0.5],[1,0.5]];portConstraint=eastwest;whiteSpace=wrap;html=1;" vertex="1" parent="fwTSQnMMm6DItT3Sku7C-79">
          <mxGeometry y="78" width="140" height="26" as="geometry" />
        </mxCell>
        <mxCell id="fwTSQnMMm6DItT3Sku7C-81" value="- validar()" style="text;align=left;verticalAlign=top;spacingLeft=4;spacingRight=4;overflow=hidden;rotatable=0;points=[[0,0.5],[1,0.5]];portConstraint=eastwest;whiteSpace=wrap;html=1;" vertex="1" parent="fwTSQnMMm6DItT3Sku7C-79">
          <mxGeometry y="104" width="140" height="26" as="geometry" />
        </mxCell>
        <mxCell id="fwTSQnMMm6DItT3Sku7C-84" style="edgeStyle=orthogonalEdgeStyle;rounded=0;orthogonalLoop=1;jettySize=auto;html=1;exitX=0;exitY=0.5;exitDx=0;exitDy=0;endArrow=diamondThin;endFill=1;endSize=12;entryX=1;entryY=0.5;entryDx=0;entryDy=0;startArrow=classicThin;startFill=1;" edge="1" parent="WIyWlLk6GJQsqaUBKTNV-1" source="fwTSQnMMm6DItT3Sku7C-82" target="fwTSQnMMm6DItT3Sku7C-57">
          <mxGeometry relative="1" as="geometry">
            <mxPoint x="590" y="240" as="targetPoint" />
            <Array as="points">
              <mxPoint x="590" y="345" />
              <mxPoint x="590" y="203" />
            </Array>
          </mxGeometry>
        </mxCell>
        <mxCell id="fwTSQnMMm6DItT3Sku7C-88" style="edgeStyle=orthogonalEdgeStyle;rounded=0;orthogonalLoop=1;jettySize=auto;html=1;entryX=1;entryY=0.5;entryDx=0;entryDy=0;endArrow=none;startFill=1;startArrow=classicThin;" edge="1" parent="WIyWlLk6GJQsqaUBKTNV-1" source="fwTSQnMMm6DItT3Sku7C-65" target="fwTSQnMMm6DItT3Sku7C-57">
          <mxGeometry relative="1" as="geometry">
            <Array as="points">
              <mxPoint x="590" y="80" />
              <mxPoint x="590" y="203" />
            </Array>
          </mxGeometry>
        </mxCell>
        <mxCell id="fwTSQnMMm6DItT3Sku7C-89" value="Processamento" style="swimlane;fontStyle=0;childLayout=stackLayout;horizontal=1;startSize=26;horizontalStack=0;resizeParent=1;resizeParentMax=0;resizeLast=0;collapsible=1;marginBottom=0;whiteSpace=wrap;html=1;" vertex="1" parent="WIyWlLk6GJQsqaUBKTNV-1">
          <mxGeometry x="75" y="576" width="230" height="160" as="geometry" />
        </mxCell>
        <mxCell id="fwTSQnMMm6DItT3Sku7C-90" value="+ id" style="text;align=left;verticalAlign=top;spacingLeft=4;spacingRight=4;overflow=hidden;rotatable=0;points=[[0,0.5],[1,0.5]];portConstraint=eastwest;whiteSpace=wrap;html=1;" vertex="1" parent="fwTSQnMMm6DItT3Sku7C-89">
          <mxGeometry y="26" width="230" height="22" as="geometry" />
        </mxCell>
        <mxCell id="fwTSQnMMm6DItT3Sku7C-94" value="+ etapas" style="text;align=left;verticalAlign=top;spacingLeft=4;spacingRight=4;overflow=hidden;rotatable=0;points=[[0,0.5],[1,0.5]];portConstraint=eastwest;whiteSpace=wrap;html=1;" vertex="1" parent="fwTSQnMMm6DItT3Sku7C-89">
          <mxGeometry y="48" width="230" height="26" as="geometry" />
        </mxCell>
        <mxCell id="fwTSQnMMm6DItT3Sku7C-157" value="+ proposta" style="text;align=left;verticalAlign=top;spacingLeft=4;spacingRight=4;overflow=hidden;rotatable=0;points=[[0,0.5],[1,0.5]];portConstraint=eastwest;whiteSpace=wrap;html=1;" vertex="1" parent="fwTSQnMMm6DItT3Sku7C-89">
          <mxGeometry y="74" width="230" height="26" as="geometry" />
        </mxCell>
        <mxCell id="fwTSQnMMm6DItT3Sku7C-142" value="+ executar()" style="text;align=left;verticalAlign=top;spacingLeft=4;spacingRight=4;overflow=hidden;rotatable=0;points=[[0,0.5],[1,0.5]];portConstraint=eastwest;whiteSpace=wrap;html=1;" vertex="1" parent="fwTSQnMMm6DItT3Sku7C-89">
          <mxGeometry y="100" width="230" height="26" as="geometry" />
        </mxCell>
        <mxCell id="fwTSQnMMm6DItT3Sku7C-143" value="+ proximaEtapa(etapa:EtapaProcesso)" style="text;align=left;verticalAlign=top;spacingLeft=4;spacingRight=4;overflow=hidden;rotatable=0;points=[[0,0.5],[1,0.5]];portConstraint=eastwest;whiteSpace=wrap;html=1;" vertex="1" parent="fwTSQnMMm6DItT3Sku7C-89">
          <mxGeometry y="126" width="230" height="34" as="geometry" />
        </mxCell>
        <mxCell id="fwTSQnMMm6DItT3Sku7C-98" value="ValorMonetario" style="swimlane;fontStyle=0;childLayout=stackLayout;horizontal=1;startSize=26;horizontalStack=0;resizeParent=1;resizeParentMax=0;resizeLast=0;collapsible=1;marginBottom=0;whiteSpace=wrap;html=1;" vertex="1" parent="WIyWlLk6GJQsqaUBKTNV-1">
          <mxGeometry x="390" y="429" width="140" height="104" as="geometry">
            <mxRectangle x="290" y="70" width="80" height="30" as="alternateBounds" />
          </mxGeometry>
        </mxCell>
        <mxCell id="fwTSQnMMm6DItT3Sku7C-99" value="+ valor" style="text;align=left;verticalAlign=top;spacingLeft=4;spacingRight=4;overflow=hidden;rotatable=0;points=[[0,0.5],[1,0.5]];portConstraint=eastwest;whiteSpace=wrap;html=1;" vertex="1" parent="fwTSQnMMm6DItT3Sku7C-98">
          <mxGeometry y="26" width="140" height="26" as="geometry" />
        </mxCell>
        <mxCell id="fwTSQnMMm6DItT3Sku7C-100" value="+ moeda" style="text;align=left;verticalAlign=top;spacingLeft=4;spacingRight=4;overflow=hidden;rotatable=0;points=[[0,0.5],[1,0.5]];portConstraint=eastwest;whiteSpace=wrap;html=1;" vertex="1" parent="fwTSQnMMm6DItT3Sku7C-98">
          <mxGeometry y="52" width="140" height="26" as="geometry" />
        </mxCell>
        <mxCell id="fwTSQnMMm6DItT3Sku7C-102" value="- validar()" style="text;align=left;verticalAlign=top;spacingLeft=4;spacingRight=4;overflow=hidden;rotatable=0;points=[[0,0.5],[1,0.5]];portConstraint=eastwest;whiteSpace=wrap;html=1;" vertex="1" parent="fwTSQnMMm6DItT3Sku7C-98">
          <mxGeometry y="78" width="140" height="26" as="geometry" />
        </mxCell>
        <mxCell id="fwTSQnMMm6DItT3Sku7C-110" value="CPF" style="swimlane;fontStyle=0;childLayout=stackLayout;horizontal=1;startSize=26;horizontalStack=0;resizeParent=1;resizeParentMax=0;resizeLast=0;collapsible=1;marginBottom=0;whiteSpace=wrap;html=1;" vertex="1" parent="WIyWlLk6GJQsqaUBKTNV-1">
          <mxGeometry x="630" y="-70" width="140" height="78" as="geometry">
            <mxRectangle x="290" y="70" width="80" height="30" as="alternateBounds" />
          </mxGeometry>
        </mxCell>
        <mxCell id="fwTSQnMMm6DItT3Sku7C-111" value="+ valor" style="text;align=left;verticalAlign=top;spacingLeft=4;spacingRight=4;overflow=hidden;rotatable=0;points=[[0,0.5],[1,0.5]];portConstraint=eastwest;whiteSpace=wrap;html=1;" vertex="1" parent="fwTSQnMMm6DItT3Sku7C-110">
          <mxGeometry y="26" width="140" height="26" as="geometry" />
        </mxCell>
        <mxCell id="fwTSQnMMm6DItT3Sku7C-112" value="- validar()" style="text;align=left;verticalAlign=top;spacingLeft=4;spacingRight=4;overflow=hidden;rotatable=0;points=[[0,0.5],[1,0.5]];portConstraint=eastwest;whiteSpace=wrap;html=1;" vertex="1" parent="fwTSQnMMm6DItT3Sku7C-110">
          <mxGeometry y="52" width="140" height="26" as="geometry" />
        </mxCell>
        <mxCell id="fwTSQnMMm6DItT3Sku7C-113" style="edgeStyle=orthogonalEdgeStyle;rounded=0;orthogonalLoop=1;jettySize=auto;html=1;exitX=0;exitY=0.5;exitDx=0;exitDy=0;entryX=1;entryY=0.5;entryDx=0;entryDy=0;endArrow=diamondThin;endFill=1;endSize=12;startArrow=classicThin;startFill=1;" edge="1" parent="WIyWlLk6GJQsqaUBKTNV-1" source="fwTSQnMMm6DItT3Sku7C-111" target="fwTSQnMMm6DItT3Sku7C-57">
          <mxGeometry relative="1" as="geometry">
            <Array as="points">
              <mxPoint x="590" y="-30" />
              <mxPoint x="590" y="203" />
            </Array>
          </mxGeometry>
        </mxCell>
        <mxCell id="fwTSQnMMm6DItT3Sku7C-97" style="edgeStyle=orthogonalEdgeStyle;rounded=0;orthogonalLoop=1;jettySize=auto;html=1;entryX=0.5;entryY=0;entryDx=0;entryDy=0;startArrow=diamondThin;startFill=1;startSize=12;endArrow=classicThin;endFill=1;endSize=6;exitX=0;exitY=0.5;exitDx=0;exitDy=0;" edge="1" parent="WIyWlLk6GJQsqaUBKTNV-1" source="fwTSQnMMm6DItT3Sku7C-41" target="fwTSQnMMm6DItT3Sku7C-5">
          <mxGeometry relative="1" as="geometry">
            <mxPoint x="400" y="213" as="sourcePoint" />
            <mxPoint x="200" y="260" as="targetPoint" />
          </mxGeometry>
        </mxCell>
        <mxCell id="fwTSQnMMm6DItT3Sku7C-96" style="edgeStyle=orthogonalEdgeStyle;rounded=0;orthogonalLoop=1;jettySize=auto;html=1;startArrow=diamondThin;startFill=1;startSize=12;endArrow=classicThin;endFill=1;endSize=6;exitX=0;exitY=0.5;exitDx=0;exitDy=0;" edge="1" parent="WIyWlLk6GJQsqaUBKTNV-1" source="fwTSQnMMm6DItT3Sku7C-57" target="fwTSQnMMm6DItT3Sku7C-5">
          <mxGeometry relative="1" as="geometry" />
        </mxCell>
        <mxCell id="fwTSQnMMm6DItT3Sku7C-103" style="edgeStyle=orthogonalEdgeStyle;rounded=0;orthogonalLoop=1;jettySize=auto;html=1;endArrow=diamondThin;endFill=1;startSize=6;endSize=12;exitX=0;exitY=0.5;exitDx=0;exitDy=0;startArrow=classicThin;startFill=1;" edge="1" parent="WIyWlLk6GJQsqaUBKTNV-1" source="fwTSQnMMm6DItT3Sku7C-100" target="fwTSQnMMm6DItT3Sku7C-14">
          <mxGeometry relative="1" as="geometry" />
        </mxCell>
        <mxCell id="fwTSQnMMm6DItT3Sku7C-144" value="&amp;lt;&amp;lt;Interface&amp;gt;&amp;gt; ResultadoEtapa&amp;lt;&lt;span style=&quot;text-align: left;&quot;&gt;Type&lt;/span&gt;&amp;gt;" style="swimlane;fontStyle=0;childLayout=stackLayout;horizontal=1;startSize=26;horizontalStack=0;resizeParent=1;resizeParentMax=0;resizeLast=0;collapsible=1;marginBottom=0;whiteSpace=wrap;html=1;" vertex="1" parent="WIyWlLk6GJQsqaUBKTNV-1">
          <mxGeometry x="-280" y="470" width="230" height="74" as="geometry" />
        </mxCell>
        <mxCell id="fwTSQnMMm6DItT3Sku7C-145" value="+ resultado: Type" style="text;align=left;verticalAlign=top;spacingLeft=4;spacingRight=4;overflow=hidden;rotatable=0;points=[[0,0.5],[1,0.5]];portConstraint=eastwest;whiteSpace=wrap;html=1;" vertex="1" parent="fwTSQnMMm6DItT3Sku7C-144">
          <mxGeometry y="26" width="230" height="22" as="geometry" />
        </mxCell>
        <mxCell id="fwTSQnMMm6DItT3Sku7C-147" value="+ getResultado(): Type" style="text;align=left;verticalAlign=top;spacingLeft=4;spacingRight=4;overflow=hidden;rotatable=0;points=[[0,0.5],[1,0.5]];portConstraint=eastwest;whiteSpace=wrap;html=1;" vertex="1" parent="fwTSQnMMm6DItT3Sku7C-144">
          <mxGeometry y="48" width="230" height="26" as="geometry" />
        </mxCell>
        <mxCell id="fwTSQnMMm6DItT3Sku7C-154" style="edgeStyle=orthogonalEdgeStyle;rounded=0;orthogonalLoop=1;jettySize=auto;html=1;entryX=0.5;entryY=1;entryDx=0;entryDy=0;endArrow=block;endFill=0;" edge="1" parent="WIyWlLk6GJQsqaUBKTNV-1" source="fwTSQnMMm6DItT3Sku7C-149" target="fwTSQnMMm6DItT3Sku7C-144">
          <mxGeometry relative="1" as="geometry" />
        </mxCell>
        <mxCell id="fwTSQnMMm6DItT3Sku7C-149" value="&amp;lt;&amp;lt;abstract&amp;gt;&amp;gt; EtapaProcesso&amp;lt;&lt;span style=&quot;text-align: left;&quot;&gt;Type&lt;/span&gt;&amp;gt;" style="swimlane;fontStyle=0;childLayout=stackLayout;horizontal=1;startSize=26;horizontalStack=0;resizeParent=1;resizeParentMax=0;resizeLast=0;collapsible=1;marginBottom=0;whiteSpace=wrap;html=1;" vertex="1" parent="WIyWlLk6GJQsqaUBKTNV-1">
          <mxGeometry x="-280" y="581" width="230" height="122" as="geometry" />
        </mxCell>
        <mxCell id="fwTSQnMMm6DItT3Sku7C-156" value="+ id" style="text;align=left;verticalAlign=top;spacingLeft=4;spacingRight=4;overflow=hidden;rotatable=0;points=[[0,0.5],[1,0.5]];portConstraint=eastwest;whiteSpace=wrap;html=1;" vertex="1" parent="fwTSQnMMm6DItT3Sku7C-149">
          <mxGeometry y="26" width="230" height="22" as="geometry" />
        </mxCell>
        <mxCell id="fwTSQnMMm6DItT3Sku7C-150" value="+ data" style="text;align=left;verticalAlign=top;spacingLeft=4;spacingRight=4;overflow=hidden;rotatable=0;points=[[0,0.5],[1,0.5]];portConstraint=eastwest;whiteSpace=wrap;html=1;" vertex="1" parent="fwTSQnMMm6DItT3Sku7C-149">
          <mxGeometry y="48" width="230" height="22" as="geometry" />
        </mxCell>
        <mxCell id="fwTSQnMMm6DItT3Sku7C-152" value="+ nome" style="text;align=left;verticalAlign=top;spacingLeft=4;spacingRight=4;overflow=hidden;rotatable=0;points=[[0,0.5],[1,0.5]];portConstraint=eastwest;whiteSpace=wrap;html=1;" vertex="1" parent="fwTSQnMMm6DItT3Sku7C-149">
          <mxGeometry y="70" width="230" height="26" as="geometry" />
        </mxCell>
        <mxCell id="fwTSQnMMm6DItT3Sku7C-151" value="+ executar()" style="text;align=left;verticalAlign=top;spacingLeft=4;spacingRight=4;overflow=hidden;rotatable=0;points=[[0,0.5],[1,0.5]];portConstraint=eastwest;whiteSpace=wrap;html=1;" vertex="1" parent="fwTSQnMMm6DItT3Sku7C-149">
          <mxGeometry y="96" width="230" height="26" as="geometry" />
        </mxCell>
        <mxCell id="fwTSQnMMm6DItT3Sku7C-153" style="rounded=0;orthogonalLoop=1;jettySize=auto;html=1;entryX=1;entryY=0.5;entryDx=0;entryDy=0;startArrow=diamondThin;startFill=1;endArrow=classicThin;endFill=1;startSize=12;exitX=0;exitY=0.5;exitDx=0;exitDy=0;" edge="1" parent="WIyWlLk6GJQsqaUBKTNV-1" source="fwTSQnMMm6DItT3Sku7C-157" target="fwTSQnMMm6DItT3Sku7C-152">
          <mxGeometry relative="1" as="geometry" />
        </mxCell>
        <mxCell id="fwTSQnMMm6DItT3Sku7C-163" style="edgeStyle=orthogonalEdgeStyle;rounded=0;orthogonalLoop=1;jettySize=auto;html=1;entryX=0.5;entryY=1;entryDx=0;entryDy=0;endArrow=block;endFill=0;" edge="1" parent="WIyWlLk6GJQsqaUBKTNV-1" source="fwTSQnMMm6DItT3Sku7C-159" target="fwTSQnMMm6DItT3Sku7C-149">
          <mxGeometry relative="1" as="geometry" />
        </mxCell>
        <mxCell id="fwTSQnMMm6DItT3Sku7C-159" value="averbacao" style="swimlane;fontStyle=0;childLayout=stackLayout;horizontal=1;startSize=26;horizontalStack=0;resizeParent=1;resizeParentMax=0;resizeLast=0;collapsible=1;marginBottom=0;whiteSpace=wrap;html=1;" vertex="1" parent="WIyWlLk6GJQsqaUBKTNV-1">
          <mxGeometry x="-320" y="800" width="140" height="52" as="geometry" />
        </mxCell>
        <mxCell id="fwTSQnMMm6DItT3Sku7C-162" value="+ status" style="text;align=left;verticalAlign=top;spacingLeft=4;spacingRight=4;overflow=hidden;rotatable=0;points=[[0,0.5],[1,0.5]];portConstraint=eastwest;whiteSpace=wrap;html=1;" vertex="1" parent="fwTSQnMMm6DItT3Sku7C-159">
          <mxGeometry y="26" width="140" height="26" as="geometry" />
        </mxCell>
        <mxCell id="fwTSQnMMm6DItT3Sku7C-164" value="SimulacaoService" style="swimlane;fontStyle=0;childLayout=stackLayout;horizontal=1;startSize=26;horizontalStack=0;resizeParent=1;resizeParentMax=0;resizeLast=0;collapsible=1;marginBottom=0;whiteSpace=wrap;html=1;" vertex="1" parent="WIyWlLk6GJQsqaUBKTNV-1">
          <mxGeometry x="-326" y="254" width="310" height="92" as="geometry" />
        </mxCell>
        <mxCell id="fwTSQnMMm6DItT3Sku7C-167" value="+ proposta" style="text;align=left;verticalAlign=top;spacingLeft=4;spacingRight=4;overflow=hidden;rotatable=0;points=[[0,0.5],[1,0.5]];portConstraint=eastwest;whiteSpace=wrap;html=1;" vertex="1" parent="fwTSQnMMm6DItT3Sku7C-164">
          <mxGeometry y="26" width="310" height="26" as="geometry" />
        </mxCell>
        <mxCell id="fwTSQnMMm6DItT3Sku7C-169" value="+ simular(proposta): EtapaProcesso&amp;lt;int&amp;gt;" style="text;align=left;verticalAlign=top;spacingLeft=4;spacingRight=4;overflow=hidden;rotatable=0;points=[[0,0.5],[1,0.5]];portConstraint=eastwest;whiteSpace=wrap;html=1;" vertex="1" parent="fwTSQnMMm6DItT3Sku7C-164">
          <mxGeometry y="52" width="310" height="40" as="geometry" />
        </mxCell>
        <mxCell id="fwTSQnMMm6DItT3Sku7C-171" style="edgeStyle=orthogonalEdgeStyle;rounded=0;orthogonalLoop=1;jettySize=auto;html=1;entryX=1;entryY=0.5;entryDx=0;entryDy=0;dashed=1;endArrow=block;endFill=0;" edge="1" parent="WIyWlLk6GJQsqaUBKTNV-1" source="fwTSQnMMm6DItT3Sku7C-8" target="fwTSQnMMm6DItT3Sku7C-167">
          <mxGeometry relative="1" as="geometry">
            <Array as="points">
              <mxPoint x="65" y="357" />
              <mxPoint x="65" y="293" />
            </Array>
          </mxGeometry>
        </mxCell>
        <mxCell id="fwTSQnMMm6DItT3Sku7C-172" value="AverbacaoService" style="swimlane;fontStyle=0;childLayout=stackLayout;horizontal=1;startSize=26;horizontalStack=0;resizeParent=1;resizeParentMax=0;resizeLast=0;collapsible=1;marginBottom=0;whiteSpace=wrap;html=1;" vertex="1" parent="WIyWlLk6GJQsqaUBKTNV-1">
          <mxGeometry x="-324" y="356" width="310" height="92" as="geometry" />
        </mxCell>
        <mxCell id="fwTSQnMMm6DItT3Sku7C-173" value="+ proposta" style="text;align=left;verticalAlign=top;spacingLeft=4;spacingRight=4;overflow=hidden;rotatable=0;points=[[0,0.5],[1,0.5]];portConstraint=eastwest;whiteSpace=wrap;html=1;" vertex="1" parent="fwTSQnMMm6DItT3Sku7C-172">
          <mxGeometry y="26" width="310" height="26" as="geometry" />
        </mxCell>
        <mxCell id="fwTSQnMMm6DItT3Sku7C-174" value="+ averbar(proposta, proponente): EtapaProcesso&amp;lt;int&amp;gt;" style="text;align=left;verticalAlign=top;spacingLeft=4;spacingRight=4;overflow=hidden;rotatable=0;points=[[0,0.5],[1,0.5]];portConstraint=eastwest;whiteSpace=wrap;html=1;" vertex="1" parent="fwTSQnMMm6DItT3Sku7C-172">
          <mxGeometry y="52" width="310" height="40" as="geometry" />
        </mxCell>
        <mxCell id="fwTSQnMMm6DItT3Sku7C-175" style="edgeStyle=orthogonalEdgeStyle;rounded=0;orthogonalLoop=1;jettySize=auto;html=1;entryX=1;entryY=0.5;entryDx=0;entryDy=0;dashed=1;endArrow=block;endFill=0;exitX=0;exitY=0.5;exitDx=0;exitDy=0;" edge="1" parent="WIyWlLk6GJQsqaUBKTNV-1" source="fwTSQnMMm6DItT3Sku7C-8" target="fwTSQnMMm6DItT3Sku7C-173">
          <mxGeometry relative="1" as="geometry">
            <mxPoint x="130" y="367" as="sourcePoint" />
            <mxPoint x="20" y="303" as="targetPoint" />
            <Array as="points">
              <mxPoint x="65" y="357" />
              <mxPoint x="65" y="395" />
            </Array>
          </mxGeometry>
        </mxCell>
        <mxCell id="fwTSQnMMm6DItT3Sku7C-177" value="RestricoesUfService" style="swimlane;fontStyle=0;childLayout=stackLayout;horizontal=1;startSize=26;horizontalStack=0;resizeParent=1;resizeParentMax=0;resizeLast=0;collapsible=1;marginBottom=0;whiteSpace=wrap;html=1;" vertex="1" parent="WIyWlLk6GJQsqaUBKTNV-1">
          <mxGeometry x="-327" y="127" width="310" height="118" as="geometry" />
        </mxCell>
        <mxCell id="fwTSQnMMm6DItT3Sku7C-178" value="+ proposta" style="text;align=left;verticalAlign=top;spacingLeft=4;spacingRight=4;overflow=hidden;rotatable=0;points=[[0,0.5],[1,0.5]];portConstraint=eastwest;whiteSpace=wrap;html=1;" vertex="1" parent="fwTSQnMMm6DItT3Sku7C-177">
          <mxGeometry y="26" width="310" height="26" as="geometry" />
        </mxCell>
        <mxCell id="fwTSQnMMm6DItT3Sku7C-185" value="+ proponente" style="text;align=left;verticalAlign=top;spacingLeft=4;spacingRight=4;overflow=hidden;rotatable=0;points=[[0,0.5],[1,0.5]];portConstraint=eastwest;whiteSpace=wrap;html=1;" vertex="1" parent="fwTSQnMMm6DItT3Sku7C-177">
          <mxGeometry y="52" width="310" height="26" as="geometry" />
        </mxCell>
        <mxCell id="fwTSQnMMm6DItT3Sku7C-179" value="+ possuiRestricao(proposta, proponente): boolean" style="text;align=left;verticalAlign=top;spacingLeft=4;spacingRight=4;overflow=hidden;rotatable=0;points=[[0,0.5],[1,0.5]];portConstraint=eastwest;whiteSpace=wrap;html=1;" vertex="1" parent="fwTSQnMMm6DItT3Sku7C-177">
          <mxGeometry y="78" width="310" height="40" as="geometry" />
        </mxCell>
        <mxCell id="fwTSQnMMm6DItT3Sku7C-180" style="edgeStyle=orthogonalEdgeStyle;rounded=0;orthogonalLoop=1;jettySize=auto;html=1;entryX=1;entryY=0.5;entryDx=0;entryDy=0;dashed=1;endArrow=block;endFill=0;" edge="1" parent="WIyWlLk6GJQsqaUBKTNV-1" source="fwTSQnMMm6DItT3Sku7C-8" target="fwTSQnMMm6DItT3Sku7C-185">
          <mxGeometry relative="1" as="geometry">
            <Array as="points">
              <mxPoint x="65" y="357" />
              <mxPoint x="65" y="192" />
            </Array>
          </mxGeometry>
        </mxCell>
        <mxCell id="fwTSQnMMm6DItT3Sku7C-186" value="RestricoesCpfService" style="swimlane;fontStyle=0;childLayout=stackLayout;horizontal=1;startSize=26;horizontalStack=0;resizeParent=1;resizeParentMax=0;resizeLast=0;collapsible=1;marginBottom=0;whiteSpace=wrap;html=1;" vertex="1" parent="WIyWlLk6GJQsqaUBKTNV-1">
          <mxGeometry x="-327" width="310" height="118" as="geometry" />
        </mxCell>
        <mxCell id="fwTSQnMMm6DItT3Sku7C-187" value="+ proposta" style="text;align=left;verticalAlign=top;spacingLeft=4;spacingRight=4;overflow=hidden;rotatable=0;points=[[0,0.5],[1,0.5]];portConstraint=eastwest;whiteSpace=wrap;html=1;" vertex="1" parent="fwTSQnMMm6DItT3Sku7C-186">
          <mxGeometry y="26" width="310" height="26" as="geometry" />
        </mxCell>
        <mxCell id="fwTSQnMMm6DItT3Sku7C-188" value="+ proponente" style="text;align=left;verticalAlign=top;spacingLeft=4;spacingRight=4;overflow=hidden;rotatable=0;points=[[0,0.5],[1,0.5]];portConstraint=eastwest;whiteSpace=wrap;html=1;" vertex="1" parent="fwTSQnMMm6DItT3Sku7C-186">
          <mxGeometry y="52" width="310" height="26" as="geometry" />
        </mxCell>
        <mxCell id="fwTSQnMMm6DItT3Sku7C-189" value="+ possuiRestricao(proposta, proponente): boolean" style="text;align=left;verticalAlign=top;spacingLeft=4;spacingRight=4;overflow=hidden;rotatable=0;points=[[0,0.5],[1,0.5]];portConstraint=eastwest;whiteSpace=wrap;html=1;" vertex="1" parent="fwTSQnMMm6DItT3Sku7C-186">
          <mxGeometry y="78" width="310" height="40" as="geometry" />
        </mxCell>
        <mxCell id="fwTSQnMMm6DItT3Sku7C-190" style="edgeStyle=orthogonalEdgeStyle;rounded=0;orthogonalLoop=1;jettySize=auto;html=1;entryX=1;entryY=0.5;entryDx=0;entryDy=0;dashed=1;endArrow=block;endFill=0;" edge="1" parent="WIyWlLk6GJQsqaUBKTNV-1" source="fwTSQnMMm6DItT3Sku7C-8" target="fwTSQnMMm6DItT3Sku7C-188">
          <mxGeometry relative="1" as="geometry">
            <Array as="points">
              <mxPoint x="65" y="357" />
              <mxPoint x="65" y="65" />
            </Array>
          </mxGeometry>
        </mxCell>
        <mxCell id="fwTSQnMMm6DItT3Sku7C-191" style="edgeStyle=orthogonalEdgeStyle;rounded=0;orthogonalLoop=1;jettySize=auto;html=1;entryX=0;entryY=0.5;entryDx=0;entryDy=0;exitX=0;exitY=0.5;exitDx=0;exitDy=0;dashed=1;endArrow=block;endFill=0;" edge="1" parent="WIyWlLk6GJQsqaUBKTNV-1" source="fwTSQnMMm6DItT3Sku7C-164" target="fwTSQnMMm6DItT3Sku7C-145">
          <mxGeometry relative="1" as="geometry">
            <Array as="points">
              <mxPoint x="-410" y="300" />
              <mxPoint x="-410" y="507" />
            </Array>
          </mxGeometry>
        </mxCell>
        <mxCell id="fwTSQnMMm6DItT3Sku7C-192" style="edgeStyle=orthogonalEdgeStyle;rounded=0;orthogonalLoop=1;jettySize=auto;html=1;entryX=0;entryY=0.5;entryDx=0;entryDy=0;exitX=0;exitY=0.5;exitDx=0;exitDy=0;endArrow=block;endFill=0;dashed=1;dashPattern=8 8;" edge="1" parent="WIyWlLk6GJQsqaUBKTNV-1" source="fwTSQnMMm6DItT3Sku7C-173" target="fwTSQnMMm6DItT3Sku7C-145">
          <mxGeometry relative="1" as="geometry">
            <Array as="points">
              <mxPoint x="-410" y="395" />
              <mxPoint x="-410" y="507" />
            </Array>
          </mxGeometry>
        </mxCell>
      </root>
    </mxGraphModel>
  </diagram>
</mxfile>
